<svg width="1107" height="293" viewBox="0 0 1107 293" fill="none" xmlns="http://www.w3.org/2000/svg">
<path d="M199 14.069H69V136H199V14.069Z" stroke="#BD0A0A" stroke-width="7" stroke-miterlimit="10"/>
<path d="M69 42.3477H199" stroke="#BD0A0A" stroke-width="7" stroke-miterlimit="10"/>
<path d="M116.667 60.9656H125.333" stroke="#BD0A0A" stroke-width="7" stroke-miterlimit="10"/>
<path d="M142.667 60.9656H151.333" stroke="#BD0A0A" stroke-width="7" stroke-miterlimit="10"/>
<path d="M168.667 60.9656H177.333" stroke="#BD0A0A" stroke-width="7" stroke-miterlimit="10"/>
<path d="M168.667 79.7241H177.333" stroke="#BD0A0A" stroke-width="7" stroke-miterlimit="10"/>
<path d="M142.667 79.7241H151.333" stroke="#BD0A0A" stroke-width="7" stroke-miterlimit="10"/>
<path d="M116.667 79.7241H125.333" stroke="#BD0A0A" stroke-width="7" stroke-miterlimit="10"/>
<path d="M90.6667 79.7241H99.3333" stroke="#BD0A0A" stroke-width="7" stroke-miterlimit="10"/>
<path d="M90.6667 98.4828H99.3333" stroke="#BD0A0A" stroke-width="7" stroke-miterlimit="10"/>
<path d="M116.667 98.4828H125.333" stroke="#BD0A0A" stroke-width="7" stroke-miterlimit="10"/>
<path d="M142.667 98.4828H151.333" stroke="#BD0A0A" stroke-width="7" stroke-miterlimit="10"/>
<path d="M168.667 98.4828H177.333" stroke="#BD0A0A" stroke-width="7" stroke-miterlimit="10"/>
<path d="M90.6667 117.241H99.3333" stroke="#BD0A0A" stroke-width="7" stroke-miterlimit="10"/>
<path d="M116.667 117.241H125.333" stroke="#BD0A0A" stroke-width="7" stroke-miterlimit="10"/>
<path d="M142.667 117.241H151.333" stroke="#BD0A0A" stroke-width="7" stroke-miterlimit="10"/>
<path d="M95 0V28.1379" stroke="#BD0A0A" stroke-width="7" stroke-miterlimit="10"/>
<path d="M173 0V28.1379" stroke="#BD0A0A" stroke-width="7" stroke-miterlimit="10"/>
<path fill-rule="evenodd" clip-rule="evenodd" d="M551.803 20.8723C560.291 12.3342 571.798 7.54167 583.792 7.54167C595.786 7.54167 607.293 12.3342 615.78 20.8723C624.269 29.411 629.042 40.9965 629.042 53.0816C629.042 73.9215 617.488 92.7802 605.449 106.707C599.475 113.618 593.491 119.187 589.001 123.026C586.866 124.851 585.076 126.28 583.792 127.272C582.508 126.28 580.717 124.851 578.583 123.026C574.092 119.187 568.108 113.618 562.134 106.707C550.095 92.7802 538.542 73.9215 538.542 53.0816C538.542 40.9965 543.314 29.411 551.803 20.8723ZM581.618 135.061C581.62 135.061 581.621 135.062 583.792 131.979C585.963 135.062 585.964 135.061 585.965 135.061C584.663 135.977 582.92 135.977 581.618 135.061ZM581.618 135.061L583.792 131.979L585.965 135.061L585.979 135.051L586.013 135.027L586.133 134.941C586.236 134.867 586.384 134.76 586.574 134.62C586.954 134.341 587.503 133.932 588.196 133.399C589.583 132.333 591.549 130.77 593.902 128.758C598.602 124.739 604.874 118.905 611.155 111.639C623.626 97.2117 636.583 76.6214 636.583 53.0816C636.583 39.0108 631.027 25.5116 621.129 15.5551C611.23 5.59795 597.8 0 583.792 0C569.783 0 556.353 5.59795 546.454 15.5551C536.557 25.5116 531 39.0108 531 53.0816C531 76.6214 543.957 97.2117 556.429 111.639C562.71 118.905 568.981 124.739 573.682 128.758C576.035 130.77 578.001 132.333 579.387 133.399C580.08 133.932 580.629 134.341 581.009 134.62C581.199 134.76 581.347 134.867 581.45 134.941L581.57 135.027L581.605 135.051L581.618 135.061ZM568.708 52.7917C568.708 44.4615 575.462 37.7083 583.792 37.7083C592.122 37.7083 598.875 44.4615 598.875 52.7917C598.875 61.1218 592.122 67.875 583.792 67.875C575.462 67.875 568.708 61.1218 568.708 52.7917ZM583.792 30.1667C571.296 30.1667 561.167 40.2963 561.167 52.7917C561.167 65.2871 571.296 75.4167 583.792 75.4167C596.287 75.4167 606.417 65.2871 606.417 52.7917C606.417 40.2963 596.287 30.1667 583.792 30.1667Z" fill="#BD0A0A"/>
<path d="M44.907 230.288C43.131 230.288 41.403 230.012 39.723 229.46C38.067 228.908 36.711 228.164 35.655 227.228L37.311 224.384C38.151 225.176 39.243 225.824 40.587 226.328C41.931 226.832 43.359 227.084 44.871 227.084C46.791 227.084 48.267 226.676 49.299 225.86C50.331 225.044 50.847 223.952 50.847 222.584C50.847 221.648 50.619 220.832 50.163 220.136C49.707 219.44 48.915 218.912 47.787 218.552C46.683 218.168 45.159 217.976 43.215 217.976H37.491L38.823 204.8H53.043V207.932H40.155L42.027 206.168L40.983 216.572L39.111 214.844H43.971C46.491 214.844 48.519 215.168 50.055 215.816C51.591 216.464 52.707 217.364 53.403 218.516C54.099 219.644 54.447 220.952 54.447 222.44C54.447 223.88 54.099 225.2 53.403 226.4C52.707 227.576 51.651 228.524 50.235 229.244C48.843 229.94 47.067 230.288 44.907 230.288ZM81.7628 228.38V213.944H73.4828L73.3028 217.616C73.2548 218.816 73.1708 219.98 73.0508 221.108C72.9548 222.212 72.7868 223.232 72.5468 224.168C72.3308 225.104 72.0068 225.872 71.5748 226.472C71.1428 227.072 70.5668 227.444 69.8468 227.588L66.4268 226.976C67.1708 227 67.7708 226.76 68.2268 226.256C68.6828 225.728 69.0308 225.008 69.2708 224.096C69.5348 223.184 69.7268 222.152 69.8468 221C69.9668 219.824 70.0628 218.612 70.1348 217.364L70.4228 210.92H85.2188V228.38H81.7628ZM65.6708 234.428V226.976H88.1348V234.428H84.8948V230H68.9468V234.428H65.6708ZM101.133 230.216C99.0931 230.216 97.2931 229.796 95.7331 228.956C94.1971 228.116 92.9971 226.964 92.1331 225.5C91.2931 224.036 90.8731 222.356 90.8731 220.46C90.8731 218.564 91.2811 216.884 92.0971 215.42C92.9371 213.956 94.0771 212.816 95.5171 212C96.9811 211.16 98.6251 210.74 100.449 210.74C102.297 210.74 103.929 211.148 105.345 211.964C106.761 212.78 107.865 213.932 108.657 215.42C109.473 216.884 109.881 218.6 109.881 220.568C109.881 220.712 109.869 220.88 109.845 221.072C109.845 221.264 109.833 221.444 109.809 221.612H93.5731V219.128H108.009L106.605 219.992C106.629 218.768 106.377 217.676 105.849 216.716C105.321 215.756 104.589 215.012 103.653 214.484C102.741 213.932 101.673 213.656 100.449 213.656C99.2491 213.656 98.1811 213.932 97.2451 214.484C96.3091 215.012 95.5771 215.768 95.0491 216.752C94.5211 217.712 94.2571 218.816 94.2571 220.064V220.64C94.2571 221.912 94.5451 223.052 95.1211 224.06C95.7211 225.044 96.5491 225.812 97.6051 226.364C98.6611 226.916 99.8731 227.192 101.241 227.192C102.369 227.192 103.389 227 104.301 226.616C105.237 226.232 106.053 225.656 106.749 224.888L108.657 227.12C107.793 228.128 106.713 228.896 105.417 229.424C104.145 229.952 102.717 230.216 101.133 230.216ZM129.067 230L121.687 220.712L124.531 218.984L133.135 230H129.067ZM115.243 230V210.92H118.699V230H115.243ZM117.655 221.936V218.984H123.955V221.936H117.655ZM124.819 220.856L121.615 220.424L128.923 210.92H132.631L124.819 220.856ZM148.107 230V225.968L147.927 225.212V218.336C147.927 216.872 147.495 215.744 146.631 214.952C145.791 214.136 144.519 213.728 142.815 213.728C141.687 213.728 140.583 213.92 139.503 214.304C138.423 214.664 137.511 215.156 136.767 215.78L135.327 213.188C136.311 212.396 137.487 211.796 138.855 211.388C140.247 210.956 141.699 210.74 143.211 210.74C145.827 210.74 147.843 211.376 149.259 212.648C150.675 213.92 151.383 215.864 151.383 218.48V230H148.107ZM141.843 230.216C140.427 230.216 139.179 229.976 138.099 229.496C137.043 229.016 136.227 228.356 135.651 227.516C135.075 226.652 134.787 225.68 134.787 224.6C134.787 223.568 135.027 222.632 135.507 221.792C136.011 220.952 136.815 220.28 137.919 219.776C139.047 219.272 140.559 219.02 142.455 219.02H148.503V221.504H142.599C140.871 221.504 139.707 221.792 139.107 222.368C138.507 222.944 138.207 223.64 138.207 224.456C138.207 225.392 138.579 226.148 139.323 226.724C140.067 227.276 141.099 227.552 142.419 227.552C143.715 227.552 144.843 227.264 145.803 226.688C146.787 226.112 147.495 225.272 147.927 224.168L148.611 226.544C148.155 227.672 147.351 228.572 146.199 229.244C145.047 229.892 143.595 230.216 141.843 230.216ZM166.426 230.288C164.842 230.288 163.438 230.036 162.214 229.532C161.014 229.028 159.982 228.284 159.118 227.3C158.254 226.292 157.594 225.032 157.138 223.52C156.706 221.984 156.49 220.184 156.49 218.12C156.49 216.488 156.634 215.024 156.922 213.728C157.21 212.432 157.618 211.28 158.146 210.272C158.698 209.264 159.37 208.388 160.162 207.644C160.978 206.9 161.89 206.288 162.898 205.808C163.93 205.304 165.058 204.92 166.282 204.656L174.994 202.712L175.498 205.916L167.47 207.644C166.99 207.74 166.414 207.884 165.742 208.076C165.07 208.268 164.386 208.568 163.69 208.976C162.994 209.36 162.346 209.9 161.746 210.596C161.146 211.292 160.666 212.204 160.306 213.332C159.946 214.436 159.766 215.804 159.766 217.436C159.766 217.892 159.778 218.24 159.802 218.48C159.826 218.72 159.85 218.96 159.874 219.2C159.922 219.44 159.958 219.8 159.982 220.28L158.542 218.804C158.926 217.484 159.538 216.332 160.378 215.348C161.218 214.364 162.226 213.608 163.402 213.08C164.602 212.528 165.91 212.252 167.326 212.252C169.102 212.252 170.674 212.636 172.042 213.404C173.434 214.172 174.526 215.228 175.318 216.572C176.11 217.916 176.506 219.452 176.506 221.18C176.506 222.932 176.086 224.504 175.246 225.896C174.43 227.264 173.266 228.344 171.754 229.136C170.242 229.904 168.466 230.288 166.426 230.288ZM166.75 227.408C167.974 227.408 169.054 227.144 169.99 226.616C170.926 226.064 171.658 225.332 172.186 224.42C172.714 223.484 172.978 222.44 172.978 221.288C172.978 220.136 172.714 219.116 172.186 218.228C171.658 217.34 170.926 216.644 169.99 216.14C169.054 215.612 167.95 215.348 166.678 215.348C165.478 215.348 164.398 215.6 163.438 216.104C162.478 216.584 161.734 217.268 161.206 218.156C160.678 219.02 160.414 220.028 160.414 221.18C160.414 222.332 160.678 223.388 161.206 224.348C161.758 225.284 162.502 226.028 163.438 226.58C164.398 227.132 165.502 227.408 166.75 227.408ZM191.558 230.216C189.974 230.216 188.522 229.856 187.202 229.136C185.906 228.392 184.862 227.3 184.07 225.86C183.302 224.42 182.918 222.62 182.918 220.46C182.918 218.3 183.29 216.5 184.034 215.06C184.802 213.62 185.834 212.54 187.13 211.82C188.45 211.1 189.926 210.74 191.558 210.74C193.43 210.74 195.086 211.148 196.526 211.964C197.966 212.78 199.106 213.92 199.946 215.384C200.786 216.824 201.206 218.516 201.206 220.46C201.206 222.404 200.786 224.108 199.946 225.572C199.106 227.036 197.966 228.176 196.526 228.992C195.086 229.808 193.43 230.216 191.558 230.216ZM181.442 236.984V210.92H184.754V216.068L184.538 220.496L184.898 224.924V236.984H181.442ZM191.27 227.192C192.494 227.192 193.586 226.916 194.546 226.364C195.53 225.812 196.298 225.032 196.85 224.024C197.426 222.992 197.714 221.804 197.714 220.46C197.714 219.092 197.426 217.916 196.85 216.932C196.298 215.924 195.53 215.144 194.546 214.592C193.586 214.04 192.494 213.764 191.27 213.764C190.07 213.764 188.978 214.04 187.994 214.592C187.034 215.144 186.266 215.924 185.69 216.932C185.138 217.916 184.862 219.092 184.862 220.46C184.862 221.804 185.138 222.992 185.69 224.024C186.266 225.032 187.034 225.812 187.994 226.364C188.978 226.916 190.07 227.192 191.27 227.192ZM217.798 230V223.304L218.338 223.952H212.254C209.71 223.952 207.718 223.412 206.278 222.332C204.862 221.252 204.154 219.68 204.154 217.616C204.154 215.408 204.91 213.74 206.422 212.612C207.958 211.484 209.998 210.92 212.542 210.92H220.894V230H217.798ZM203.974 230L209.158 222.692H212.722L207.682 230H203.974ZM217.798 222.224V212.972L218.338 213.944H212.65C211.066 213.944 209.842 214.244 208.978 214.844C208.114 215.42 207.682 216.38 207.682 217.724C207.682 220.22 209.29 221.468 212.506 221.468H218.338L217.798 222.224ZM3.77964 274V254.92H7.23564V263.02H18.1076V254.92H21.5636V274H18.1076V266.008H7.23564V274H3.77964ZM39.9835 274V269.968L39.8035 269.212V262.336C39.8035 260.872 39.3715 259.744 38.5075 258.952C37.6675 258.136 36.3955 257.728 34.6915 257.728C33.5635 257.728 32.4595 257.92 31.3795 258.304C30.2995 258.664 29.3875 259.156 28.6435 259.78L27.2035 257.188C28.1875 256.396 29.3635 255.796 30.7315 255.388C32.1235 254.956 33.5755 254.74 35.0875 254.74C37.7035 254.74 39.7195 255.376 41.1355 256.648C42.5515 257.92 43.2595 259.864 43.2595 262.48V274H39.9835ZM33.7195 274.216C32.3035 274.216 31.0555 273.976 29.9755 273.496C28.9195 273.016 28.1035 272.356 27.5275 271.516C26.9515 270.652 26.6635 269.68 26.6635 268.6C26.6635 267.568 26.9035 266.632 27.3835 265.792C27.8875 264.952 28.6915 264.28 29.7955 263.776C30.9235 263.272 32.4355 263.02 34.3315 263.02H40.3795V265.504H34.4755C32.7475 265.504 31.5835 265.792 30.9835 266.368C30.3835 266.944 30.0835 267.64 30.0835 268.456C30.0835 269.392 30.4555 270.148 31.1995 270.724C31.9435 271.276 32.9755 271.552 34.2955 271.552C35.5915 271.552 36.7195 271.264 37.6795 270.688C38.6635 270.112 39.3715 269.272 39.8035 268.168L40.4875 270.544C40.0315 271.672 39.2275 272.572 38.0755 273.244C36.9235 273.892 35.4715 274.216 33.7195 274.216ZM61.5068 266.188C60.4988 266.668 59.4548 267.052 58.3748 267.34C57.3188 267.604 56.2268 267.736 55.0988 267.736C52.7948 267.736 50.9708 267.196 49.6268 266.116C48.3068 265.036 47.6468 263.368 47.6468 261.112V254.92H51.1028V260.896C51.1028 262.264 51.5228 263.272 52.3628 263.92C53.2268 264.568 54.3788 264.892 55.8188 264.892C56.7308 264.892 57.6668 264.772 58.6268 264.532C59.6108 264.292 60.5708 263.956 61.5068 263.524V266.188ZM61.2548 274V254.92H64.7108V274H61.2548ZM83.1203 274V269.968L82.9403 269.212V262.336C82.9403 260.872 82.5083 259.744 81.6443 258.952C80.8043 258.136 79.5323 257.728 77.8283 257.728C76.7003 257.728 75.5963 257.92 74.5163 258.304C73.4363 258.664 72.5243 259.156 71.7803 259.78L70.3403 257.188C71.3243 256.396 72.5003 255.796 73.8683 255.388C75.2603 254.956 76.7123 254.74 78.2243 254.74C80.8403 254.74 82.8563 255.376 84.2723 256.648C85.6883 257.92 86.3963 259.864 86.3963 262.48V274H83.1203ZM76.8563 274.216C75.4403 274.216 74.1923 273.976 73.1123 273.496C72.0563 273.016 71.2403 272.356 70.6643 271.516C70.0883 270.652 69.8003 269.68 69.8003 268.6C69.8003 267.568 70.0403 266.632 70.5203 265.792C71.0243 264.952 71.8283 264.28 72.9323 263.776C74.0603 263.272 75.5723 263.02 77.4683 263.02H83.5163V265.504H77.6123C75.8843 265.504 74.7203 265.792 74.1203 266.368C73.5203 266.944 73.2203 267.64 73.2203 268.456C73.2203 269.392 73.5923 270.148 74.3363 270.724C75.0803 271.276 76.1123 271.552 77.4323 271.552C78.7283 271.552 79.8563 271.264 80.8163 270.688C81.8003 270.112 82.5083 269.272 82.9403 268.168L83.6243 270.544C83.1683 271.672 82.3643 272.572 81.2123 273.244C80.0603 273.892 78.6083 274.216 76.8563 274.216ZM89.4515 273.964L89.6675 271.048C89.8355 271.072 89.9915 271.096 90.1355 271.12C90.2795 271.144 90.4115 271.156 90.5315 271.156C91.2995 271.156 91.8995 270.892 92.3315 270.364C92.7875 269.836 93.1235 269.14 93.3395 268.276C93.5555 267.388 93.7115 266.392 93.8075 265.288C93.9035 264.184 93.9755 263.08 94.0235 261.976L94.3475 254.92H108.999V274H105.543V256.936L106.371 257.944H96.5795L97.3715 256.9L97.1195 262.192C97.0475 263.872 96.9155 265.444 96.7235 266.908C96.5315 268.372 96.2315 269.656 95.8235 270.76C95.4395 271.864 94.8995 272.728 94.2035 273.352C93.5315 273.976 92.6555 274.288 91.5755 274.288C91.2635 274.288 90.9275 274.252 90.5675 274.18C90.2315 274.132 89.8595 274.06 89.4515 273.964ZM123.854 274.216C121.934 274.216 120.23 273.796 118.742 272.956C117.254 272.116 116.078 270.964 115.214 269.5C114.35 268.012 113.918 266.332 113.918 264.46C113.918 262.564 114.35 260.884 115.214 259.42C116.078 257.956 117.254 256.816 118.742 256C120.23 255.16 121.934 254.74 123.854 254.74C125.75 254.74 127.442 255.16 128.93 256C130.442 256.816 131.618 257.956 132.458 259.42C133.322 260.86 133.754 262.54 133.754 264.46C133.754 266.356 133.322 268.036 132.458 269.5C131.618 270.964 130.442 272.116 128.93 272.956C127.442 273.796 125.75 274.216 123.854 274.216ZM123.854 271.192C125.078 271.192 126.17 270.916 127.13 270.364C128.114 269.812 128.882 269.032 129.434 268.024C129.986 266.992 130.262 265.804 130.262 264.46C130.262 263.092 129.986 261.916 129.434 260.932C128.882 259.924 128.114 259.144 127.13 258.592C126.17 258.04 125.078 257.764 123.854 257.764C122.63 257.764 121.538 258.04 120.578 258.592C119.618 259.144 118.85 259.924 118.274 260.932C117.698 261.916 117.41 263.092 117.41 264.46C117.41 265.804 117.698 266.992 118.274 268.024C118.85 269.032 119.618 269.812 120.578 270.364C121.538 270.916 122.63 271.192 123.854 271.192ZM148.412 274V254.92H157.268C159.5 254.92 161.252 255.352 162.524 256.216C163.82 257.056 164.468 258.256 164.468 259.816C164.468 261.376 163.856 262.588 162.632 263.452C161.432 264.292 159.836 264.712 157.844 264.712L158.384 263.776C160.664 263.776 162.356 264.196 163.46 265.036C164.564 265.876 165.116 267.112 165.116 268.744C165.116 270.4 164.492 271.696 163.244 272.632C162.02 273.544 160.136 274 157.592 274H148.412ZM151.796 271.336H157.34C158.78 271.336 159.86 271.12 160.58 270.688C161.3 270.232 161.66 269.512 161.66 268.528C161.66 267.52 161.324 266.788 160.652 266.332C160.004 265.852 158.972 265.612 157.556 265.612H151.796V271.336ZM151.796 263.128H156.98C158.3 263.128 159.296 262.888 159.968 262.408C160.664 261.904 161.012 261.208 161.012 260.32C161.012 259.408 160.664 258.724 159.968 258.268C159.296 257.812 158.3 257.584 156.98 257.584H151.796V263.128ZM182.822 274V250.24L184.37 251.932H177.134V248.8H186.386V274H182.822ZM200.07 248.512C202.35 248.512 204.27 249.004 205.83 249.988C207.414 250.972 208.614 252.4 209.43 254.272C210.246 256.12 210.654 258.388 210.654 261.076C210.654 263.932 210.15 266.344 209.142 268.312C208.134 270.28 206.742 271.768 204.966 272.776C203.19 273.784 201.114 274.288 198.738 274.288C197.562 274.288 196.422 274.168 195.318 273.928C194.238 273.688 193.29 273.316 192.474 272.812L193.842 270.004C194.514 270.436 195.258 270.748 196.074 270.94C196.914 271.108 197.79 271.192 198.702 271.192C201.246 271.192 203.274 270.4 204.786 268.816C206.298 267.208 207.054 264.832 207.054 261.688C207.054 261.184 207.03 260.584 206.982 259.888C206.934 259.192 206.826 258.508 206.658 257.836L207.846 259.06C207.51 260.164 206.946 261.1 206.154 261.868C205.386 262.612 204.45 263.176 203.346 263.56C202.266 263.92 201.078 264.1 199.782 264.1C198.126 264.1 196.65 263.788 195.354 263.164C194.058 262.54 193.038 261.664 192.294 260.536C191.55 259.384 191.178 258.028 191.178 256.468C191.178 254.836 191.562 253.432 192.33 252.256C193.122 251.056 194.19 250.132 195.534 249.484C196.902 248.836 198.414 248.512 200.07 248.512ZM200.214 251.428C199.134 251.428 198.174 251.632 197.334 252.04C196.494 252.448 195.834 253.012 195.354 253.732C194.898 254.452 194.67 255.316 194.67 256.324C194.67 257.812 195.186 259 196.218 259.888C197.25 260.752 198.642 261.184 200.394 261.184C201.546 261.184 202.554 260.968 203.418 260.536C204.306 260.104 204.99 259.516 205.47 258.772C205.974 258.028 206.226 257.2 206.226 256.288C206.226 255.4 205.998 254.596 205.542 253.876C205.086 253.156 204.414 252.568 203.526 252.112C202.638 251.656 201.534 251.428 200.214 251.428ZM216.493 259.672C215.821 259.672 215.245 259.444 214.765 258.988C214.285 258.508 214.045 257.908 214.045 257.188C214.045 256.468 214.285 255.88 214.765 255.424C215.245 254.968 215.821 254.74 216.493 254.74C217.141 254.74 217.693 254.968 218.149 255.424C218.629 255.88 218.869 256.468 218.869 257.188C218.869 257.908 218.629 258.508 218.149 258.988C217.693 259.444 217.141 259.672 216.493 259.672ZM216.493 274.216C215.821 274.216 215.245 273.988 214.765 273.532C214.285 273.052 214.045 272.452 214.045 271.732C214.045 271.012 214.285 270.424 214.765 269.968C215.245 269.512 215.821 269.284 216.493 269.284C217.141 269.284 217.693 269.512 218.149 269.968C218.629 270.424 218.869 271.012 218.869 271.732C218.869 272.452 218.629 273.052 218.149 273.532C217.693 273.988 217.141 274.216 216.493 274.216ZM232.569 274.288C230.601 274.288 228.837 273.784 227.277 272.776C225.741 271.768 224.517 270.304 223.605 268.384C222.717 266.464 222.273 264.136 222.273 261.4C222.273 258.664 222.717 256.336 223.605 254.416C224.517 252.496 225.741 251.032 227.277 250.024C228.837 249.016 230.601 248.512 232.569 248.512C234.513 248.512 236.265 249.016 237.825 250.024C239.385 251.032 240.609 252.496 241.497 254.416C242.385 256.336 242.829 258.664 242.829 261.4C242.829 264.136 242.385 266.464 241.497 268.384C240.609 270.304 239.385 271.768 237.825 272.776C236.265 273.784 234.513 274.288 232.569 274.288ZM232.569 271.084C233.889 271.084 235.041 270.724 236.025 270.004C237.033 269.284 237.813 268.204 238.365 266.764C238.941 265.324 239.229 263.536 239.229 261.4C239.229 259.264 238.941 257.476 238.365 256.036C237.813 254.596 237.033 253.516 236.025 252.796C235.041 252.076 233.889 251.716 232.569 251.716C231.249 251.716 230.085 252.076 229.077 252.796C228.069 253.516 227.277 254.596 226.701 256.036C226.149 257.476 225.873 259.264 225.873 261.4C225.873 263.536 226.149 265.324 226.701 266.764C227.277 268.204 228.069 269.284 229.077 270.004C230.085 270.724 231.249 271.084 232.569 271.084ZM256.581 274.288C254.613 274.288 252.849 273.784 251.289 272.776C249.753 271.768 248.529 270.304 247.617 268.384C246.729 266.464 246.285 264.136 246.285 261.4C246.285 258.664 246.729 256.336 247.617 254.416C248.529 252.496 249.753 251.032 251.289 250.024C252.849 249.016 254.613 248.512 256.581 248.512C258.525 248.512 260.277 249.016 261.837 250.024C263.397 251.032 264.621 252.496 265.509 254.416C266.397 256.336 266.841 258.664 266.841 261.4C266.841 264.136 266.397 266.464 265.509 268.384C264.621 270.304 263.397 271.768 261.837 272.776C260.277 273.784 258.525 274.288 256.581 274.288ZM256.581 271.084C257.901 271.084 259.053 270.724 260.037 270.004C261.045 269.284 261.825 268.204 262.377 266.764C262.953 265.324 263.241 263.536 263.241 261.4C263.241 259.264 262.953 257.476 262.377 256.036C261.825 254.596 261.045 253.516 260.037 252.796C259.053 252.076 257.901 251.716 256.581 251.716C255.261 251.716 254.097 252.076 253.089 252.796C252.081 253.516 251.289 254.596 250.713 256.036C250.161 257.476 249.885 259.264 249.885 261.4C249.885 263.536 250.161 265.324 250.713 266.764C251.289 268.204 252.081 269.284 253.089 270.004C254.097 270.724 255.261 271.084 256.581 271.084Z" fill="black"/>
<path d="M407.659 230V207.932H399.019V204.8H419.863V207.932H411.223V230H407.659ZM433.468 210.74C435.028 210.74 436.396 211.04 437.572 211.64C438.772 212.24 439.708 213.152 440.38 214.376C441.052 215.6 441.388 217.148 441.388 219.02V230H437.932V219.416C437.932 217.568 437.476 216.176 436.564 215.24C435.676 214.304 434.416 213.836 432.784 213.836C431.56 213.836 430.492 214.076 429.58 214.556C428.668 215.036 427.96 215.744 427.456 216.68C426.976 217.616 426.736 218.78 426.736 220.172V230H423.28V203.288H426.736V216.068L426.052 214.7C426.676 213.452 427.636 212.48 428.932 211.784C430.228 211.088 431.74 210.74 433.468 210.74ZM456.28 230.216C454.24 230.216 452.44 229.796 450.88 228.956C449.344 228.116 448.144 226.964 447.28 225.5C446.44 224.036 446.02 222.356 446.02 220.46C446.02 218.564 446.428 216.884 447.244 215.42C448.084 213.956 449.224 212.816 450.664 212C452.128 211.16 453.772 210.74 455.596 210.74C457.444 210.74 459.076 211.148 460.492 211.964C461.908 212.78 463.012 213.932 463.804 215.42C464.62 216.884 465.028 218.6 465.028 220.568C465.028 220.712 465.016 220.88 464.992 221.072C464.992 221.264 464.98 221.444 464.956 221.612H448.72V219.128H463.156L461.752 219.992C461.776 218.768 461.524 217.676 460.996 216.716C460.468 215.756 459.736 215.012 458.8 214.484C457.888 213.932 456.82 213.656 455.596 213.656C454.396 213.656 453.328 213.932 452.392 214.484C451.456 215.012 450.724 215.768 450.196 216.752C449.668 217.712 449.404 218.816 449.404 220.064V220.64C449.404 221.912 449.692 223.052 450.268 224.06C450.868 225.044 451.696 225.812 452.752 226.364C453.808 226.916 455.02 227.192 456.388 227.192C457.516 227.192 458.536 227 459.448 226.616C460.384 226.232 461.2 225.656 461.896 224.888L463.804 227.12C462.94 228.128 461.86 228.896 460.564 229.424C459.292 229.952 457.864 230.216 456.28 230.216ZM491.267 230.288C489.347 230.288 487.571 229.976 485.939 229.352C484.331 228.704 482.927 227.804 481.727 226.652C480.551 225.476 479.627 224.108 478.955 222.548C478.283 220.988 477.947 219.272 477.947 217.4C477.947 215.528 478.283 213.812 478.955 212.252C479.627 210.692 480.563 209.336 481.763 208.184C482.963 207.008 484.367 206.108 485.975 205.484C487.607 204.836 489.383 204.512 491.303 204.512C493.247 204.512 495.035 204.848 496.667 205.52C498.323 206.168 499.727 207.14 500.879 208.436L498.539 210.704C497.579 209.696 496.499 208.952 495.299 208.472C494.099 207.968 492.815 207.716 491.447 207.716C490.031 207.716 488.711 207.956 487.487 208.436C486.287 208.916 485.243 209.588 484.355 210.452C483.467 211.316 482.771 212.348 482.267 213.548C481.787 214.724 481.547 216.008 481.547 217.4C481.547 218.792 481.787 220.088 482.267 221.288C482.771 222.464 483.467 223.484 484.355 224.348C485.243 225.212 486.287 225.884 487.487 226.364C488.711 226.844 490.031 227.084 491.447 227.084C492.815 227.084 494.099 226.844 495.299 226.364C496.499 225.86 497.579 225.092 498.539 224.06L500.879 226.328C499.727 227.624 498.323 228.608 496.667 229.28C495.035 229.952 493.235 230.288 491.267 230.288ZM517.108 230V225.968L516.928 225.212V218.336C516.928 216.872 516.496 215.744 515.632 214.952C514.792 214.136 513.52 213.728 511.816 213.728C510.688 213.728 509.584 213.92 508.504 214.304C507.424 214.664 506.512 215.156 505.768 215.78L504.328 213.188C505.312 212.396 506.488 211.796 507.856 211.388C509.248 210.956 510.7 210.74 512.212 210.74C514.828 210.74 516.844 211.376 518.26 212.648C519.676 213.92 520.384 215.864 520.384 218.48V230H517.108ZM510.844 230.216C509.428 230.216 508.18 229.976 507.1 229.496C506.044 229.016 505.228 228.356 504.652 227.516C504.076 226.652 503.788 225.68 503.788 224.6C503.788 223.568 504.028 222.632 504.508 221.792C505.012 220.952 505.816 220.28 506.92 219.776C508.048 219.272 509.56 219.02 511.456 219.02H517.504V221.504H511.6C509.872 221.504 508.708 221.792 508.108 222.368C507.508 222.944 507.208 223.64 507.208 224.456C507.208 225.392 507.58 226.148 508.324 226.724C509.068 227.276 510.1 227.552 511.42 227.552C512.716 227.552 513.844 227.264 514.804 226.688C515.788 226.112 516.496 225.272 516.928 224.168L517.612 226.544C517.156 227.672 516.352 228.572 515.2 229.244C514.048 229.892 512.596 230.216 510.844 230.216ZM526.78 230V210.92H530.092V216.104L529.768 214.808C530.296 213.488 531.184 212.48 532.432 211.784C533.68 211.088 535.216 210.74 537.04 210.74V214.088C536.896 214.064 536.752 214.052 536.608 214.052C536.488 214.052 536.368 214.052 536.248 214.052C534.4 214.052 532.936 214.604 531.856 215.708C530.776 216.812 530.236 218.408 530.236 220.496V230H526.78ZM541.299 230V203.288H544.755V230H541.299ZM558.398 230.216C556.478 230.216 554.99 229.7 553.934 228.668C552.878 227.636 552.35 226.16 552.35 224.24V206.744H555.806V224.096C555.806 225.128 556.058 225.92 556.562 226.472C557.09 227.024 557.834 227.3 558.794 227.3C559.874 227.3 560.774 227 561.494 226.4L562.574 228.884C562.046 229.34 561.41 229.676 560.666 229.892C559.946 230.108 559.19 230.216 558.398 230.216ZM549.11 213.764V210.92H561.278V213.764H549.11ZM574.292 230.216C572.372 230.216 570.668 229.796 569.18 228.956C567.692 228.116 566.516 226.964 565.652 225.5C564.788 224.012 564.356 222.332 564.356 220.46C564.356 218.564 564.788 216.884 565.652 215.42C566.516 213.956 567.692 212.816 569.18 212C570.668 211.16 572.372 210.74 574.292 210.74C576.188 210.74 577.88 211.16 579.368 212C580.88 212.816 582.056 213.956 582.896 215.42C583.76 216.86 584.192 218.54 584.192 220.46C584.192 222.356 583.76 224.036 582.896 225.5C582.056 226.964 580.88 228.116 579.368 228.956C577.88 229.796 576.188 230.216 574.292 230.216ZM574.292 227.192C575.516 227.192 576.608 226.916 577.568 226.364C578.552 225.812 579.32 225.032 579.872 224.024C580.424 222.992 580.7 221.804 580.7 220.46C580.7 219.092 580.424 217.916 579.872 216.932C579.32 215.924 578.552 215.144 577.568 214.592C576.608 214.04 575.516 213.764 574.292 213.764C573.068 213.764 571.976 214.04 571.016 214.592C570.056 215.144 569.288 215.924 568.712 216.932C568.136 217.916 567.848 219.092 567.848 220.46C567.848 221.804 568.136 222.992 568.712 224.024C569.288 225.032 570.056 225.812 571.016 226.364C571.976 226.916 573.068 227.192 574.292 227.192ZM599.159 210.74C600.719 210.74 602.087 211.04 603.263 211.64C604.463 212.24 605.399 213.152 606.071 214.376C606.743 215.6 607.079 217.148 607.079 219.02V230H603.623V219.416C603.623 217.568 603.167 216.176 602.255 215.24C601.367 214.304 600.107 213.836 598.475 213.836C597.251 213.836 596.183 214.076 595.271 214.556C594.359 215.036 593.651 215.744 593.147 216.68C592.667 217.616 592.427 218.78 592.427 220.172V230H588.971V210.92H592.283V216.068L591.743 214.7C592.367 213.452 593.327 212.48 594.623 211.784C595.919 211.088 597.431 210.74 599.159 210.74ZM623.647 230V204.8H626.599L637.903 223.844H636.319L647.479 204.8H650.431L650.467 230H647.011L646.975 210.236H647.803L637.867 226.94H636.211L626.203 210.236H627.103V230H623.647ZM665.698 230.216C663.778 230.216 662.074 229.796 660.586 228.956C659.098 228.116 657.922 226.964 657.058 225.5C656.194 224.012 655.762 222.332 655.762 220.46C655.762 218.564 656.194 216.884 657.058 215.42C657.922 213.956 659.098 212.816 660.586 212C662.074 211.16 663.778 210.74 665.698 210.74C667.594 210.74 669.286 211.16 670.774 212C672.286 212.816 673.462 213.956 674.302 215.42C675.166 216.86 675.598 218.54 675.598 220.46C675.598 222.356 675.166 224.036 674.302 225.5C673.462 226.964 672.286 228.116 670.774 228.956C669.286 229.796 667.594 230.216 665.698 230.216ZM665.698 227.192C666.922 227.192 668.014 226.916 668.974 226.364C669.958 225.812 670.726 225.032 671.278 224.024C671.83 222.992 672.106 221.804 672.106 220.46C672.106 219.092 671.83 217.916 671.278 216.932C670.726 215.924 669.958 215.144 668.974 214.592C668.014 214.04 666.922 213.764 665.698 213.764C664.474 213.764 663.382 214.04 662.422 214.592C661.462 215.144 660.694 215.924 660.118 216.932C659.542 217.916 659.254 219.092 659.254 220.46C659.254 221.804 659.542 222.992 660.118 224.024C660.694 225.032 661.462 225.812 662.422 226.364C663.382 226.916 664.474 227.192 665.698 227.192ZM685.85 230.216C684.266 230.216 682.754 230 681.314 229.568C679.898 229.136 678.782 228.608 677.966 227.984L679.406 225.248C680.222 225.8 681.23 226.268 682.43 226.652C683.63 227.036 684.854 227.228 686.102 227.228C687.71 227.228 688.862 227 689.558 226.544C690.278 226.088 690.638 225.452 690.638 224.636C690.638 224.036 690.422 223.568 689.99 223.232C689.558 222.896 688.982 222.644 688.262 222.476C687.566 222.308 686.786 222.164 685.922 222.044C685.058 221.9 684.194 221.732 683.33 221.54C682.466 221.324 681.674 221.036 680.954 220.676C680.234 220.292 679.658 219.776 679.226 219.128C678.794 218.456 678.578 217.568 678.578 216.464C678.578 215.312 678.902 214.304 679.55 213.44C680.198 212.576 681.11 211.916 682.286 211.46C683.486 210.98 684.902 210.74 686.534 210.74C687.782 210.74 689.042 210.896 690.314 211.208C691.61 211.496 692.666 211.916 693.482 212.468L692.006 215.204C691.142 214.628 690.242 214.232 689.306 214.016C688.37 213.8 687.434 213.692 686.498 213.692C684.986 213.692 683.858 213.944 683.114 214.448C682.37 214.928 681.998 215.552 681.998 216.32C681.998 216.968 682.214 217.472 682.646 217.832C683.102 218.168 683.678 218.432 684.374 218.624C685.094 218.816 685.886 218.984 686.75 219.128C687.614 219.248 688.478 219.416 689.342 219.632C690.206 219.824 690.986 220.1 691.682 220.46C692.402 220.82 692.978 221.324 693.41 221.972C693.866 222.62 694.094 223.484 694.094 224.564C694.094 225.716 693.758 226.712 693.086 227.552C692.414 228.392 691.466 229.052 690.242 229.532C689.018 229.988 687.554 230.216 685.85 230.216ZM706.729 230.216C704.785 230.216 703.045 229.796 701.509 228.956C699.997 228.116 698.809 226.964 697.945 225.5C697.081 224.036 696.649 222.356 696.649 220.46C696.649 218.564 697.081 216.884 697.945 215.42C698.809 213.956 699.997 212.816 701.509 212C703.045 211.16 704.785 210.74 706.729 210.74C708.457 210.74 709.993 211.088 711.337 211.784C712.705 212.456 713.761 213.464 714.505 214.808L711.877 216.5C711.253 215.564 710.485 214.88 709.573 214.448C708.685 213.992 707.725 213.764 706.693 213.764C705.445 213.764 704.329 214.04 703.345 214.592C702.361 215.144 701.581 215.924 701.005 216.932C700.429 217.916 700.141 219.092 700.141 220.46C700.141 221.828 700.429 223.016 701.005 224.024C701.581 225.032 702.361 225.812 703.345 226.364C704.329 226.916 705.445 227.192 706.693 227.192C707.725 227.192 708.685 226.976 709.573 226.544C710.485 226.088 711.253 225.392 711.877 224.456L714.505 226.112C713.761 227.432 712.705 228.452 711.337 229.172C709.993 229.868 708.457 230.216 706.729 230.216ZM726.87 230.216C724.95 230.216 723.246 229.796 721.758 228.956C720.27 228.116 719.094 226.964 718.23 225.5C717.366 224.012 716.934 222.332 716.934 220.46C716.934 218.564 717.366 216.884 718.23 215.42C719.094 213.956 720.27 212.816 721.758 212C723.246 211.16 724.95 210.74 726.87 210.74C728.766 210.74 730.458 211.16 731.946 212C733.458 212.816 734.634 213.956 735.474 215.42C736.338 216.86 736.77 218.54 736.77 220.46C736.77 222.356 736.338 224.036 735.474 225.5C734.634 226.964 733.458 228.116 731.946 228.956C730.458 229.796 728.766 230.216 726.87 230.216ZM726.87 227.192C728.094 227.192 729.186 226.916 730.146 226.364C731.13 225.812 731.898 225.032 732.45 224.024C733.002 222.992 733.278 221.804 733.278 220.46C733.278 219.092 733.002 217.916 732.45 216.932C731.898 215.924 731.13 215.144 730.146 214.592C729.186 214.04 728.094 213.764 726.87 213.764C725.646 213.764 724.554 214.04 723.594 214.592C722.634 215.144 721.866 215.924 721.29 216.932C720.714 217.916 720.426 219.092 720.426 220.46C720.426 221.804 720.714 222.992 721.29 224.024C721.866 225.032 722.634 225.812 723.594 226.364C724.554 226.916 725.646 227.192 726.87 227.192ZM745.054 230L737.962 210.92H741.238L747.538 228.2H745.99L752.542 210.92H755.458L761.866 228.2H760.354L766.798 210.92H769.894L762.766 230H759.454L753.442 214.232H754.45L748.366 230H745.054ZM447.8 280.984C446.432 278.8 445.376 276.28 444.632 273.424C443.888 270.544 443.516 267.448 443.516 264.136C443.516 260.824 443.888 257.728 444.632 254.848C445.376 251.944 446.432 249.424 447.8 247.288H451.076C449.636 249.832 448.58 252.496 447.908 255.28C447.236 258.04 446.9 260.992 446.9 264.136C446.9 267.28 447.236 270.244 447.908 273.028C448.58 275.788 449.636 278.44 451.076 280.984H447.8ZM460.875 274V250.996L461.775 251.932H452.271V248.8H473.043V251.932H463.539L464.403 250.996V274H460.875ZM476.385 274V254.92H485.241C487.473 254.92 489.225 255.352 490.497 256.216C491.793 257.056 492.441 258.256 492.441 259.816C492.441 261.376 491.829 262.588 490.605 263.452C489.405 264.292 487.809 264.712 485.817 264.712L486.357 263.776C488.637 263.776 490.329 264.196 491.433 265.036C492.537 265.876 493.089 267.112 493.089 268.744C493.089 270.4 492.465 271.696 491.217 272.632C489.993 273.544 488.109 274 485.565 274H476.385ZM479.769 271.336H485.313C486.753 271.336 487.833 271.12 488.553 270.688C489.273 270.232 489.633 269.512 489.633 268.528C489.633 267.52 489.297 266.788 488.625 266.332C487.977 265.852 486.945 265.612 485.529 265.612H479.769V271.336ZM479.769 263.128H484.953C486.273 263.128 487.269 262.888 487.941 262.408C488.637 261.904 488.985 261.208 488.985 260.32C488.985 259.408 488.637 258.724 487.941 258.268C487.269 257.812 486.273 257.584 484.953 257.584H479.769V263.128ZM506.994 274.216C504.954 274.216 503.154 273.796 501.594 272.956C500.058 272.116 498.858 270.964 497.994 269.5C497.154 268.036 496.734 266.356 496.734 264.46C496.734 262.564 497.142 260.884 497.958 259.42C498.798 257.956 499.938 256.816 501.378 256C502.842 255.16 504.486 254.74 506.31 254.74C508.158 254.74 509.79 255.148 511.206 255.964C512.622 256.78 513.726 257.932 514.518 259.42C515.334 260.884 515.742 262.6 515.742 264.568C515.742 264.712 515.73 264.88 515.706 265.072C515.706 265.264 515.694 265.444 515.67 265.612H499.434V263.128H513.87L512.466 263.992C512.49 262.768 512.238 261.676 511.71 260.716C511.182 259.756 510.45 259.012 509.514 258.484C508.602 257.932 507.534 257.656 506.31 257.656C505.11 257.656 504.042 257.932 503.106 258.484C502.17 259.012 501.438 259.768 500.91 260.752C500.382 261.712 500.118 262.816 500.118 264.064V264.64C500.118 265.912 500.406 267.052 500.982 268.06C501.582 269.044 502.41 269.812 503.466 270.364C504.522 270.916 505.734 271.192 507.102 271.192C508.23 271.192 509.25 271 510.162 270.616C511.098 270.232 511.914 269.656 512.61 268.888L514.518 271.12C513.654 272.128 512.574 272.896 511.278 273.424C510.006 273.952 508.578 274.216 506.994 274.216ZM531.22 274.216C529.636 274.216 528.184 273.856 526.864 273.136C525.568 272.392 524.524 271.3 523.732 269.86C522.964 268.42 522.58 266.62 522.58 264.46C522.58 262.3 522.952 260.5 523.696 259.06C524.464 257.62 525.496 256.54 526.792 255.82C528.112 255.1 529.588 254.74 531.22 254.74C533.092 254.74 534.748 255.148 536.188 255.964C537.628 256.78 538.768 257.92 539.608 259.384C540.448 260.824 540.868 262.516 540.868 264.46C540.868 266.404 540.448 268.108 539.608 269.572C538.768 271.036 537.628 272.176 536.188 272.992C534.748 273.808 533.092 274.216 531.22 274.216ZM521.104 280.984V254.92H524.416V260.068L524.2 264.496L524.56 268.924V280.984H521.104ZM530.932 271.192C532.156 271.192 533.248 270.916 534.208 270.364C535.192 269.812 535.96 269.032 536.512 268.024C537.088 266.992 537.376 265.804 537.376 264.46C537.376 263.092 537.088 261.916 536.512 260.932C535.96 259.924 535.192 259.144 534.208 258.592C533.248 258.04 532.156 257.764 530.932 257.764C529.732 257.764 528.64 258.04 527.656 258.592C526.696 259.144 525.928 259.924 525.352 260.932C524.8 261.916 524.524 263.092 524.524 264.46C524.524 265.804 524.8 266.992 525.352 268.024C525.928 269.032 526.696 269.812 527.656 270.364C528.64 270.916 529.732 271.192 530.932 271.192ZM554.205 274.216C552.261 274.216 550.521 273.796 548.985 272.956C547.473 272.116 546.285 270.964 545.421 269.5C544.557 268.036 544.125 266.356 544.125 264.46C544.125 262.564 544.557 260.884 545.421 259.42C546.285 257.956 547.473 256.816 548.985 256C550.521 255.16 552.261 254.74 554.205 254.74C555.933 254.74 557.469 255.088 558.813 255.784C560.181 256.456 561.237 257.464 561.981 258.808L559.353 260.5C558.729 259.564 557.961 258.88 557.049 258.448C556.161 257.992 555.201 257.764 554.169 257.764C552.921 257.764 551.805 258.04 550.821 258.592C549.837 259.144 549.057 259.924 548.481 260.932C547.905 261.916 547.617 263.092 547.617 264.46C547.617 265.828 547.905 267.016 548.481 268.024C549.057 269.032 549.837 269.812 550.821 270.364C551.805 270.916 552.921 271.192 554.169 271.192C555.201 271.192 556.161 270.976 557.049 270.544C557.961 270.088 558.729 269.392 559.353 268.456L561.981 270.112C561.237 271.432 560.181 272.452 558.813 273.172C557.469 273.868 555.933 274.216 554.205 274.216ZM580.279 274L572.899 264.712L575.743 262.984L584.347 274H580.279ZM566.455 274V254.92H569.911V274H566.455ZM568.867 265.936V262.984H575.167V265.936H568.867ZM576.031 264.856L572.827 264.424L580.135 254.92H583.843L576.031 264.856ZM599.319 274V269.968L599.139 269.212V262.336C599.139 260.872 598.707 259.744 597.843 258.952C597.003 258.136 595.731 257.728 594.027 257.728C592.899 257.728 591.795 257.92 590.715 258.304C589.635 258.664 588.723 259.156 587.979 259.78L586.539 257.188C587.523 256.396 588.699 255.796 590.067 255.388C591.459 254.956 592.911 254.74 594.423 254.74C597.039 254.74 599.055 255.376 600.471 256.648C601.887 257.92 602.595 259.864 602.595 262.48V274H599.319ZM593.055 274.216C591.639 274.216 590.391 273.976 589.311 273.496C588.255 273.016 587.439 272.356 586.863 271.516C586.287 270.652 585.999 269.68 585.999 268.6C585.999 267.568 586.239 266.632 586.719 265.792C587.223 264.952 588.027 264.28 589.131 263.776C590.259 263.272 591.771 263.02 593.667 263.02H599.715V265.504H593.811C592.083 265.504 590.919 265.792 590.319 266.368C589.719 266.944 589.419 267.64 589.419 268.456C589.419 269.392 589.791 270.148 590.535 270.724C591.279 271.276 592.311 271.552 593.631 271.552C594.927 271.552 596.055 271.264 597.015 270.688C597.999 270.112 598.707 269.272 599.139 268.168L599.823 270.544C599.367 271.672 598.563 272.572 597.411 273.244C596.259 273.892 594.807 274.216 593.055 274.216ZM621.023 274V267.304L621.563 267.952H615.479C612.935 267.952 610.943 267.412 609.503 266.332C608.087 265.252 607.379 263.68 607.379 261.616C607.379 259.408 608.135 257.74 609.647 256.612C611.183 255.484 613.223 254.92 615.767 254.92H624.119V274H621.023ZM607.199 274L612.383 266.692H615.947L610.907 274H607.199ZM621.023 266.224V256.972L621.563 257.944H615.875C614.291 257.944 613.067 258.244 612.203 258.844C611.339 259.42 610.907 260.38 610.907 261.724C610.907 264.22 612.515 265.468 615.731 265.468H621.563L621.023 266.224ZM641.502 281.2C640.59 281.2 639.702 281.044 638.838 280.732C637.974 280.444 637.23 280.012 636.606 279.436L638.082 276.844C638.562 277.3 639.09 277.648 639.666 277.888C640.242 278.128 640.854 278.248 641.502 278.248C642.342 278.248 643.038 278.032 643.59 277.6C644.142 277.168 644.658 276.4 645.138 275.296L646.326 272.668L646.686 272.236L654.174 254.92H657.558L648.306 275.908C647.754 277.252 647.13 278.308 646.434 279.076C645.762 279.844 645.018 280.384 644.202 280.696C643.386 281.032 642.486 281.2 641.502 281.2ZM646.038 274.612L637.326 254.92H640.926L648.342 271.912L646.038 274.612ZM656.944 273.964L657.16 271.048C657.328 271.072 657.484 271.096 657.628 271.12C657.772 271.144 657.904 271.156 658.024 271.156C658.792 271.156 659.392 270.892 659.824 270.364C660.28 269.836 660.616 269.14 660.832 268.276C661.048 267.388 661.204 266.392 661.3 265.288C661.396 264.184 661.468 263.08 661.516 261.976L661.84 254.92H676.492V274H673.036V256.936L673.864 257.944H664.072L664.864 256.9L664.612 262.192C664.54 263.872 664.408 265.444 664.216 266.908C664.024 268.372 663.724 269.656 663.316 270.76C662.932 271.864 662.392 272.728 661.696 273.352C661.024 273.976 660.148 274.288 659.068 274.288C658.756 274.288 658.42 274.252 658.06 274.18C657.724 274.132 657.352 274.06 656.944 273.964ZM683.93 274.216C683.258 274.216 682.682 273.988 682.202 273.532C681.722 273.052 681.482 272.452 681.482 271.732C681.482 271.012 681.722 270.424 682.202 269.968C682.682 269.512 683.258 269.284 683.93 269.284C684.578 269.284 685.13 269.512 685.586 269.968C686.066 270.424 686.306 271.012 686.306 271.732C686.306 272.452 686.066 273.052 685.586 273.532C685.13 273.988 684.578 274.216 683.93 274.216ZM689.89 279.328L691.69 272.056L692.158 274.144C691.462 274.144 690.874 273.928 690.394 273.496C689.938 273.064 689.71 272.476 689.71 271.732C689.71 271.012 689.938 270.424 690.394 269.968C690.874 269.512 691.45 269.284 692.122 269.284C692.818 269.284 693.382 269.524 693.814 270.004C694.246 270.46 694.462 271.036 694.462 271.732C694.462 271.972 694.438 272.212 694.39 272.452C694.366 272.668 694.306 272.932 694.21 273.244C694.138 273.532 694.018 273.892 693.85 274.324L692.158 279.328H689.89ZM715.239 274.288C713.463 274.288 711.735 274.012 710.055 273.46C708.399 272.908 707.043 272.164 705.987 271.228L707.643 268.384C708.483 269.176 709.575 269.824 710.919 270.328C712.263 270.832 713.703 271.084 715.239 271.084C717.111 271.084 718.563 270.688 719.595 269.896C720.651 269.08 721.179 267.988 721.179 266.62C721.179 265.3 720.675 264.244 719.667 263.452C718.683 262.636 717.111 262.228 714.951 262.228H712.935V259.708L720.423 250.492L720.927 251.932H707.139V248.8H723.771V251.248L716.319 260.428L714.447 259.312H715.635C718.683 259.312 720.963 259.996 722.475 261.364C724.011 262.732 724.779 264.472 724.779 266.584C724.779 268 724.431 269.296 723.735 270.472C723.039 271.648 721.983 272.584 720.567 273.28C719.175 273.952 717.399 274.288 715.239 274.288ZM730.836 280.984H727.56C729.024 278.44 730.092 275.788 730.764 273.028C731.436 270.244 731.772 267.28 731.772 264.136C731.772 260.992 731.436 258.04 730.764 255.28C730.092 252.496 729.024 249.832 727.56 247.288H730.836C732.252 249.424 733.32 251.944 734.04 254.848C734.784 257.728 735.156 260.824 735.156 264.136C735.156 267.448 734.784 270.544 734.04 273.424C733.32 276.28 732.252 278.8 730.836 280.984Z" fill="black"/>
<path d="M920.945 228.308V207.932H909.893L909.713 213.224C909.641 215 909.521 216.704 909.353 218.336C909.209 219.968 908.993 221.444 908.705 222.764C908.417 224.06 908.009 225.128 907.481 225.968C906.977 226.808 906.329 227.324 905.537 227.516L901.649 226.868C902.585 226.94 903.353 226.628 903.953 225.932C904.577 225.212 905.057 224.216 905.393 222.944C905.753 221.648 906.017 220.148 906.185 218.444C906.353 216.716 906.473 214.868 906.545 212.9L906.797 204.8H924.509V228.308H920.945ZM900.749 235.508L900.785 226.868H928.217V235.508H924.869V230H904.133L904.097 235.508H900.749ZM942.679 230.216C941.095 230.216 939.643 229.856 938.323 229.136C937.027 228.392 935.983 227.3 935.191 225.86C934.423 224.42 934.039 222.62 934.039 220.46C934.039 218.3 934.411 216.5 935.155 215.06C935.923 213.62 936.955 212.54 938.251 211.82C939.571 211.1 941.047 210.74 942.679 210.74C944.551 210.74 946.207 211.148 947.647 211.964C949.087 212.78 950.227 213.92 951.067 215.384C951.907 216.824 952.327 218.516 952.327 220.46C952.327 222.404 951.907 224.108 951.067 225.572C950.227 227.036 949.087 228.176 947.647 228.992C946.207 229.808 944.551 230.216 942.679 230.216ZM932.563 236.984V210.92H935.875V216.068L935.659 220.496L936.019 224.924V236.984H932.563ZM942.391 227.192C943.615 227.192 944.707 226.916 945.667 226.364C946.651 225.812 947.419 225.032 947.971 224.024C948.547 222.992 948.835 221.804 948.835 220.46C948.835 219.092 948.547 217.916 947.971 216.932C947.419 215.924 946.651 215.144 945.667 214.592C944.707 214.04 943.615 213.764 942.391 213.764C941.191 213.764 940.099 214.04 939.115 214.592C938.155 215.144 937.387 215.924 936.811 216.932C936.259 217.916 935.983 219.092 935.983 220.46C935.983 221.804 936.259 222.992 936.811 224.024C937.387 225.032 938.155 225.812 939.115 226.364C940.099 226.916 941.191 227.192 942.391 227.192ZM965.844 230.216C963.804 230.216 962.004 229.796 960.444 228.956C958.908 228.116 957.708 226.964 956.844 225.5C956.004 224.036 955.584 222.356 955.584 220.46C955.584 218.564 955.992 216.884 956.808 215.42C957.648 213.956 958.788 212.816 960.228 212C961.692 211.16 963.336 210.74 965.16 210.74C967.008 210.74 968.64 211.148 970.056 211.964C971.472 212.78 972.576 213.932 973.368 215.42C974.184 216.884 974.592 218.6 974.592 220.568C974.592 220.712 974.58 220.88 974.556 221.072C974.556 221.264 974.544 221.444 974.52 221.612H958.284V219.128H972.72L971.316 219.992C971.34 218.768 971.088 217.676 970.56 216.716C970.032 215.756 969.3 215.012 968.364 214.484C967.452 213.932 966.384 213.656 965.16 213.656C963.96 213.656 962.892 213.932 961.956 214.484C961.02 215.012 960.288 215.768 959.76 216.752C959.232 217.712 958.968 218.816 958.968 220.064V220.64C958.968 221.912 959.256 223.052 959.832 224.06C960.432 225.044 961.26 225.812 962.316 226.364C963.372 226.916 964.584 227.192 965.952 227.192C967.08 227.192 968.1 227 969.012 226.616C969.948 226.232 970.764 225.656 971.46 224.888L973.368 227.12C972.504 228.128 971.424 228.896 970.128 229.424C968.856 229.952 967.428 230.216 965.844 230.216ZM988.269 230.216C986.325 230.216 984.585 229.796 983.049 228.956C981.537 228.116 980.349 226.964 979.485 225.5C978.621 224.036 978.189 222.356 978.189 220.46C978.189 218.564 978.621 216.884 979.485 215.42C980.349 213.956 981.537 212.816 983.049 212C984.585 211.16 986.325 210.74 988.269 210.74C989.997 210.74 991.533 211.088 992.877 211.784C994.245 212.456 995.301 213.464 996.045 214.808L993.417 216.5C992.793 215.564 992.025 214.88 991.113 214.448C990.225 213.992 989.265 213.764 988.233 213.764C986.985 213.764 985.869 214.04 984.885 214.592C983.901 215.144 983.121 215.924 982.545 216.932C981.969 217.916 981.681 219.092 981.681 220.46C981.681 221.828 981.969 223.016 982.545 224.024C983.121 225.032 983.901 225.812 984.885 226.364C985.869 226.916 986.985 227.192 988.233 227.192C989.265 227.192 990.225 226.976 991.113 226.544C992.025 226.088 992.793 225.392 993.417 224.456L996.045 226.112C995.301 227.432 994.245 228.452 992.877 229.172C991.533 229.868 989.997 230.216 988.269 230.216ZM1008.55 230.216C1006.61 230.216 1004.87 229.796 1003.33 228.956C1001.82 228.116 1000.63 226.964 999.771 225.5C998.907 224.036 998.475 222.356 998.475 220.46C998.475 218.564 998.907 216.884 999.771 215.42C1000.63 213.956 1001.82 212.816 1003.33 212C1004.87 211.16 1006.61 210.74 1008.55 210.74C1010.28 210.74 1011.82 211.088 1013.16 211.784C1014.53 212.456 1015.59 213.464 1016.33 214.808L1013.7 216.5C1013.08 215.564 1012.31 214.88 1011.4 214.448C1010.51 213.992 1009.55 213.764 1008.52 213.764C1007.27 213.764 1006.15 214.04 1005.17 214.592C1004.19 215.144 1003.41 215.924 1002.83 216.932C1002.25 217.916 1001.97 219.092 1001.97 220.46C1001.97 221.828 1002.25 223.016 1002.83 224.024C1003.41 225.032 1004.19 225.812 1005.17 226.364C1006.15 226.916 1007.27 227.192 1008.52 227.192C1009.55 227.192 1010.51 226.976 1011.4 226.544C1012.31 226.088 1013.08 225.392 1013.7 224.456L1016.33 226.112C1015.59 227.432 1014.53 228.452 1013.16 229.172C1011.82 229.868 1010.28 230.216 1008.55 230.216ZM1019.12 221.612V218.624H1028.81V221.612H1019.12ZM1048.02 230L1040.64 220.712L1043.49 218.984L1052.09 230H1048.02ZM1034.2 230V210.92H1037.66V230H1034.2ZM1036.61 221.936V218.984H1042.91V221.936H1036.61ZM1043.78 220.856L1040.57 220.424L1047.88 210.92H1051.59L1043.78 220.856ZM1063.25 230.216C1061.33 230.216 1059.63 229.796 1058.14 228.956C1056.65 228.116 1055.48 226.964 1054.61 225.5C1053.75 224.012 1053.32 222.332 1053.32 220.46C1053.32 218.564 1053.75 216.884 1054.61 215.42C1055.48 213.956 1056.65 212.816 1058.14 212C1059.63 211.16 1061.33 210.74 1063.25 210.74C1065.15 210.74 1066.84 211.16 1068.33 212C1069.84 212.816 1071.02 213.956 1071.86 215.42C1072.72 216.86 1073.15 218.54 1073.15 220.46C1073.15 222.356 1072.72 224.036 1071.86 225.5C1071.02 226.964 1069.84 228.116 1068.33 228.956C1066.84 229.796 1065.15 230.216 1063.25 230.216ZM1063.25 227.192C1064.48 227.192 1065.57 226.916 1066.53 226.364C1067.51 225.812 1068.28 225.032 1068.83 224.024C1069.39 222.992 1069.66 221.804 1069.66 220.46C1069.66 219.092 1069.39 217.916 1068.83 216.932C1068.28 215.924 1067.51 215.144 1066.53 214.592C1065.57 214.04 1064.48 213.764 1063.25 213.764C1062.03 213.764 1060.94 214.04 1059.98 214.592C1059.02 215.144 1058.25 215.924 1057.67 216.932C1057.1 217.916 1056.81 219.092 1056.81 220.46C1056.81 221.804 1057.1 222.992 1057.67 224.024C1058.25 225.032 1059.02 225.812 1059.98 226.364C1060.94 226.916 1062.03 227.192 1063.25 227.192ZM1091.04 228.38V213.944H1082.76L1082.58 217.616C1082.53 218.816 1082.44 219.98 1082.32 221.108C1082.23 222.212 1082.06 223.232 1081.82 224.168C1081.6 225.104 1081.28 225.872 1080.85 226.472C1080.42 227.072 1079.84 227.444 1079.12 227.588L1075.7 226.976C1076.44 227 1077.04 226.76 1077.5 226.256C1077.96 225.728 1078.3 225.008 1078.54 224.096C1078.81 223.184 1079 222.152 1079.12 221C1079.24 219.824 1079.34 218.612 1079.41 217.364L1079.7 210.92H1094.49V228.38H1091.04ZM1074.94 234.428V226.976H1097.41V234.428H1094.17V230H1078.22V234.428H1074.94ZM1102.67 215.672C1101.99 215.672 1101.42 215.444 1100.94 214.988C1100.46 214.508 1100.22 213.908 1100.22 213.188C1100.22 212.468 1100.46 211.88 1100.94 211.424C1101.42 210.968 1101.99 210.74 1102.67 210.74C1103.31 210.74 1103.87 210.968 1104.32 211.424C1104.8 211.88 1105.04 212.468 1105.04 213.188C1105.04 213.908 1104.8 214.508 1104.32 214.988C1103.87 215.444 1103.31 215.672 1102.67 215.672ZM1102.67 230.216C1101.99 230.216 1101.42 229.988 1100.94 229.532C1100.46 229.052 1100.22 228.452 1100.22 227.732C1100.22 227.012 1100.46 226.424 1100.94 225.968C1101.42 225.512 1101.99 225.284 1102.67 225.284C1103.31 225.284 1103.87 225.512 1104.32 225.968C1104.8 226.424 1105.04 227.012 1105.04 227.732C1105.04 228.452 1104.8 229.052 1104.32 229.532C1103.87 229.988 1103.31 230.216 1102.67 230.216ZM928.284 274V248.8H939.588C942.492 248.8 944.724 249.388 946.284 250.564C947.844 251.716 948.624 253.3 948.624 255.316C948.624 256.684 948.312 257.836 947.688 258.772C947.088 259.708 946.272 260.428 945.24 260.932C944.208 261.436 943.092 261.688 941.892 261.688L942.54 260.608C943.98 260.608 945.252 260.86 946.356 261.364C947.46 261.868 948.336 262.612 948.984 263.596C949.632 264.556 949.956 265.756 949.956 267.196C949.956 269.356 949.14 271.036 947.508 272.236C945.9 273.412 943.5 274 940.308 274H928.284ZM931.884 271.084H940.164C942.156 271.084 943.68 270.748 944.736 270.076C945.792 269.404 946.32 268.348 946.32 266.908C946.32 265.444 945.792 264.376 944.736 263.704C943.68 263.032 942.156 262.696 940.164 262.696H931.56V259.78H939.264C941.088 259.78 942.504 259.444 943.512 258.772C944.52 258.1 945.024 257.092 945.024 255.748C945.024 254.404 944.52 253.396 943.512 252.724C942.504 252.052 941.088 251.716 939.264 251.716H931.884V271.084ZM955.026 274V247.288H958.482V274H955.026ZM976.925 274V269.968L976.745 269.212V262.336C976.745 260.872 976.313 259.744 975.449 258.952C974.609 258.136 973.337 257.728 971.633 257.728C970.505 257.728 969.401 257.92 968.321 258.304C967.241 258.664 966.329 259.156 965.585 259.78L964.145 257.188C965.129 256.396 966.305 255.796 967.673 255.388C969.065 254.956 970.517 254.74 972.029 254.74C974.645 254.74 976.661 255.376 978.077 256.648C979.493 257.92 980.201 259.864 980.201 262.48V274H976.925ZM970.661 274.216C969.245 274.216 967.997 273.976 966.917 273.496C965.861 273.016 965.045 272.356 964.469 271.516C963.893 270.652 963.605 269.68 963.605 268.6C963.605 267.568 963.845 266.632 964.325 265.792C964.829 264.952 965.633 264.28 966.737 263.776C967.865 263.272 969.377 263.02 971.273 263.02H977.321V265.504H971.417C969.689 265.504 968.525 265.792 967.925 266.368C967.325 266.944 967.025 267.64 967.025 268.456C967.025 269.392 967.397 270.148 968.141 270.724C968.885 271.276 969.917 271.552 971.237 271.552C972.533 271.552 973.661 271.264 974.621 270.688C975.605 270.112 976.313 269.272 976.745 268.168L977.429 270.544C976.973 271.672 976.169 272.572 975.017 273.244C973.865 273.892 972.413 274.216 970.661 274.216ZM994.912 274.216C992.968 274.216 991.228 273.796 989.692 272.956C988.18 272.116 986.992 270.964 986.128 269.5C985.264 268.036 984.832 266.356 984.832 264.46C984.832 262.564 985.264 260.884 986.128 259.42C986.992 257.956 988.18 256.816 989.692 256C991.228 255.16 992.968 254.74 994.912 254.74C996.64 254.74 998.176 255.088 999.52 255.784C1000.89 256.456 1001.94 257.464 1002.69 258.808L1000.06 260.5C999.436 259.564 998.668 258.88 997.756 258.448C996.868 257.992 995.908 257.764 994.876 257.764C993.628 257.764 992.512 258.04 991.528 258.592C990.544 259.144 989.764 259.924 989.188 260.932C988.612 261.916 988.324 263.092 988.324 264.46C988.324 265.828 988.612 267.016 989.188 268.024C989.764 269.032 990.544 269.812 991.528 270.364C992.512 270.916 993.628 271.192 994.876 271.192C995.908 271.192 996.868 270.976 997.756 270.544C998.668 270.088 999.436 269.392 1000.06 268.456L1002.69 270.112C1001.94 271.432 1000.89 272.452 999.52 273.172C998.176 273.868 996.64 274.216 994.912 274.216ZM1009.72 269.392L1009.8 264.964L1020.78 254.92H1024.95L1016.53 263.2L1014.66 264.784L1009.72 269.392ZM1006.92 274V247.288H1010.37V274H1006.92ZM1021.5 274L1014.01 264.712L1016.24 261.94L1025.74 274H1021.5ZM1045.32 274.216C1043.4 274.216 1041.91 273.7 1040.86 272.668C1039.8 271.636 1039.27 270.16 1039.27 268.24V250.744H1042.73V268.096C1042.73 269.128 1042.98 269.92 1043.48 270.472C1044.01 271.024 1044.76 271.3 1045.72 271.3C1046.8 271.3 1047.7 271 1048.42 270.4L1049.5 272.884C1048.97 273.34 1048.33 273.676 1047.59 273.892C1046.87 274.108 1046.11 274.216 1045.32 274.216ZM1036.03 257.764V254.92H1048.2V257.764H1036.03ZM1053.67 274V254.92H1057.13V274H1053.67ZM1055.4 251.248C1054.73 251.248 1054.17 251.032 1053.71 250.6C1053.28 250.168 1053.06 249.64 1053.06 249.016C1053.06 248.368 1053.28 247.828 1053.71 247.396C1054.17 246.964 1054.73 246.748 1055.4 246.748C1056.07 246.748 1056.63 246.964 1057.06 247.396C1057.51 247.804 1057.74 248.32 1057.74 248.944C1057.74 249.592 1057.53 250.144 1057.09 250.6C1056.66 251.032 1056.1 251.248 1055.4 251.248ZM1072.23 274.216C1070.19 274.216 1068.39 273.796 1066.83 272.956C1065.29 272.116 1064.09 270.964 1063.23 269.5C1062.39 268.036 1061.97 266.356 1061.97 264.46C1061.97 262.564 1062.37 260.884 1063.19 259.42C1064.03 257.956 1065.17 256.816 1066.61 256C1068.07 255.16 1069.72 254.74 1071.54 254.74C1073.39 254.74 1075.02 255.148 1076.44 255.964C1077.85 256.78 1078.96 257.932 1079.75 259.42C1080.57 260.884 1080.97 262.6 1080.97 264.568C1080.97 264.712 1080.96 264.88 1080.94 265.072C1080.94 265.264 1080.93 265.444 1080.9 265.612H1064.67V263.128H1079.1L1077.7 263.992C1077.72 262.768 1077.47 261.676 1076.94 260.716C1076.41 259.756 1075.68 259.012 1074.75 258.484C1073.83 257.932 1072.77 257.656 1071.54 257.656C1070.34 257.656 1069.27 257.932 1068.34 258.484C1067.4 259.012 1066.67 259.768 1066.14 260.752C1065.61 261.712 1065.35 262.816 1065.35 264.064V264.64C1065.35 265.912 1065.64 267.052 1066.21 268.06C1066.81 269.044 1067.64 269.812 1068.7 270.364C1069.75 270.916 1070.97 271.192 1072.33 271.192C1073.46 271.192 1074.48 271 1075.39 270.616C1076.33 270.232 1077.15 269.656 1077.84 268.888L1079.75 271.12C1078.89 272.128 1077.81 272.896 1076.51 273.424C1075.24 273.952 1073.81 274.216 1072.23 274.216Z" fill="black"/>
<path d="M1038.83 0H968.17L959.84 14.4681H936V133.106V136H1071V14.4681H1047.45L1038.83 0ZM1017.57 58.7404C1017.86 58.1617 1017.86 57.583 1018.15 57.0043C1018.15 56.7149 1018.15 56.4255 1018.44 56.4255C1018.44 55.5574 1018.72 54.6894 1018.72 54.1106C1018.72 53.8213 1018.72 53.2425 1018.72 52.9532C1018.72 52.0851 1018.44 51.217 1018.15 50.3489C1018.15 50.0596 1018.15 49.7702 1017.86 49.7702C1017.86 49.4809 1017.86 49.1915 1017.57 49.1915L1032.51 40.5106C1032.8 40.2213 1033.09 40.2213 1033.09 40.5106C1033.37 40.5106 1033.95 41.0894 1034.23 41.6681C1034.52 42.2468 1034.81 42.8255 1034.81 43.6936V65.3957C1034.81 66.8426 1034.23 68 1033.37 68.2894C1033.09 68.5787 1032.51 68.5787 1032.51 68.2894L1017.57 59.6085C1017.57 59.0298 1017.57 59.0298 1017.57 58.7404ZM1014.41 43.6936C1014.13 43.4043 1013.55 42.8255 1013.27 42.5362V36.1702L1020.45 40.2213L1014.41 43.6936ZM1011.26 49.1915C1011.54 49.4809 1011.54 50.0596 1011.83 50.3489C1011.83 50.6383 1012.12 50.9277 1012.12 50.9277C1012.4 51.5064 1012.4 52.3745 1012.4 52.9532C1012.4 53.2425 1012.4 53.5319 1012.4 53.5319C1012.4 55.2681 1011.83 57.0043 1010.97 58.4511C1009.24 61.0553 1006.37 62.7915 1003.21 62.7915C1000.05 62.7915 997.181 61.0553 995.457 58.4511C994.596 57.0043 994.021 55.2681 994.021 53.5319C994.021 53.2425 994.021 53.2425 994.021 52.9532C994.021 52.3745 994.309 51.5064 994.309 50.9277C994.309 50.6383 994.596 50.3489 994.596 50.3489C994.883 50.0596 994.883 49.4809 995.17 49.1915L997.468 46.8766C999.191 45.7192 1000.91 44.8511 1003.21 44.8511C1005.22 44.8511 1007.23 45.7192 1008.96 46.8766L1011.26 49.1915ZM1003.5 68.8681C1004.94 68.8681 1006.09 68.5787 1007.52 68.2894V130.213H999.766V68.2894C1000.91 68.8681 1002.06 68.8681 1003.5 68.8681ZM989.426 59.3191L974.777 67.7106C974.489 68 974.202 68 973.915 67.7106C973.34 67.4213 972.766 66.2638 972.766 64.817V43.1149C972.766 42.2468 973.053 41.3787 973.34 41.0894C973.628 40.8 973.915 40.2213 974.489 40.2213C974.777 40.2213 974.777 40.2213 975.064 40.2213L990 48.6128V48.9021C989.713 49.4808 989.713 49.7702 989.713 50.3489C989.713 50.6383 989.713 50.6383 989.713 50.9277C989.713 51.5064 989.426 52.0851 989.426 52.6638C989.426 53.2426 989.426 53.5319 989.426 54.1106C989.426 54.9787 989.426 55.8468 989.713 56.4255C989.713 56.7149 989.713 57.0042 990 57.2936C990 57.8723 990.287 58.4511 990.574 59.0298C989.426 59.0298 989.426 59.0298 989.426 59.3191ZM986.553 40.2213L993.734 36.1702V42.5362C993.16 42.8255 992.872 43.4043 992.585 43.6936L986.553 40.2213ZM1007.52 32.9872V39.3532C1006.09 39.0638 1004.94 39.0638 1003.5 39.0638C1002.06 39.0638 1000.91 39.3532 999.766 39.6426V33.2766L1003.5 31.2511L1003.79 31.5404L1004.07 31.2511L1007.52 32.9872ZM987.989 32.9872L981.383 15.0468L998.33 27.4894L987.989 32.9872ZM1008.96 27.2L1025.9 14.7574L1019.3 32.6979L1008.96 27.2ZM1003.5 24.017L978.511 5.78723H1028.49L1003.5 24.017ZM941.745 20.2553H963L970.468 7.23404L972.766 8.97021L983.968 39.0638L977.649 35.0128C974.202 32.9872 970.181 34.434 968.17 37.9064C967.309 39.3532 967.021 41.0894 967.021 42.8255V64.5277C967.021 68 968.457 70.8936 971.043 72.3404C972.191 72.9191 973.34 73.2085 974.489 73.2085C975.638 73.2085 976.787 72.9191 977.936 72.3404L992.872 63.6596C993.16 63.9489 993.734 64.5277 994.021 64.817V129.634H941.745V20.2553ZM1065.26 130.213H1013.27V65.3957C1013.84 65.1064 1014.13 64.5277 1014.41 64.2383L1029.64 72.9192C1030.79 73.4979 1031.94 73.7872 1033.09 73.7872C1034.23 73.7872 1035.38 73.4979 1036.53 72.9192C1039.12 71.4723 1040.55 68.2894 1040.55 65.1064V43.4043C1040.55 41.6681 1039.98 39.9319 1039.4 38.4851C1038.26 36.7489 1036.82 35.3021 1034.81 34.7234C1033.09 34.1447 1031.36 34.434 1029.64 35.3021L1023.32 39.0638L1034.52 8.97021L1036.53 7.23404L1044.29 20.2553H1065.54V130.213H1065.26Z" fill="#BD0A0A"/>
</svg>
