<svg width="571" height="111" viewBox="0 0 571 111" fill="none" xmlns="http://www.w3.org/2000/svg">
<rect width="571" height="111" fill="#BD0A0A"/>
<path d="M58.352 73.384C55.792 73.384 53.408 72.952 51.2 72.088C49.024 71.224 47.136 70.024 45.536 68.488C43.936 66.92 42.688 65.096 41.792 63.016C40.896 60.936 40.448 58.664 40.448 56.2C40.448 53.736 40.896 51.464 41.792 49.384C42.688 47.304 43.936 45.496 45.536 43.96C47.136 42.392 49.024 41.176 51.2 40.312C53.376 39.448 55.76 39.016 58.352 39.016C60.912 39.016 63.264 39.448 65.408 40.312C67.584 41.144 69.472 42.344 71.072 43.912C72.704 45.448 73.952 47.256 74.816 49.336C75.712 51.416 76.16 53.704 76.16 56.2C76.16 58.696 75.712 60.984 74.816 63.064C73.952 65.144 72.704 66.968 71.072 68.536C69.472 70.072 67.584 71.272 65.408 72.136C63.264 72.968 60.912 73.384 58.352 73.384ZM58.352 69.112C60.208 69.112 61.92 68.792 63.488 68.152C65.088 67.512 66.464 66.616 67.616 65.464C68.8 64.28 69.712 62.904 70.352 61.336C71.024 59.768 71.36 58.056 71.36 56.2C71.36 54.344 71.024 52.632 70.352 51.064C69.712 49.496 68.8 48.136 67.616 46.984C66.464 45.8 65.088 44.888 63.488 44.248C61.92 43.608 60.208 43.288 58.352 43.288C56.464 43.288 54.72 43.608 53.12 44.248C51.552 44.888 50.176 45.8 48.992 46.984C47.808 48.136 46.88 49.496 46.208 51.064C45.568 52.632 45.248 54.344 45.248 56.2C45.248 58.056 45.568 59.768 46.208 61.336C46.88 62.904 47.808 64.28 48.992 65.464C50.176 66.616 51.552 67.512 53.12 68.152C54.72 68.792 56.464 69.112 58.352 69.112ZM100.336 70.744C96.2395 70.744 92.7355 70.184 89.8235 69.064C86.9115 67.912 84.6875 66.248 83.1515 64.072C81.6155 61.896 80.8475 59.256 80.8475 56.152C80.8475 53.048 81.6155 50.408 83.1515 48.232C84.6875 46.056 86.9115 44.392 89.8235 43.24C92.7355 42.088 96.2395 41.512 100.336 41.512C100.4 41.512 100.512 41.512 100.672 41.512C100.864 41.512 101.04 41.512 101.2 41.512C101.392 41.512 101.504 41.512 101.536 41.512C105.632 41.512 109.12 42.088 112 43.24C114.912 44.392 117.136 46.056 118.672 48.232C120.208 50.408 120.976 53.048 120.976 56.152C120.976 59.224 120.208 61.864 118.672 64.072C117.168 66.248 114.976 67.912 112.096 69.064C109.248 70.184 105.792 70.744 101.728 70.744C101.664 70.744 101.52 70.744 101.296 70.744C101.104 70.744 100.912 70.744 100.72 70.744C100.528 70.744 100.4 70.744 100.336 70.744ZM100.864 67C100.928 67 101.008 67 101.104 67C101.2 67 101.248 67 101.248 67C104.512 66.968 107.264 66.552 109.504 65.752C111.744 64.92 113.44 63.704 114.592 62.104C115.776 60.472 116.368 58.472 116.368 56.104C116.368 53.768 115.776 51.8 114.592 50.2C113.408 48.6 111.696 47.384 109.456 46.552C107.248 45.72 104.544 45.304 101.344 45.304C101.312 45.304 101.232 45.304 101.104 45.304C101.008 45.304 100.928 45.304 100.864 45.304C97.5675 45.304 94.7675 45.72 92.4635 46.552C90.1915 47.352 88.4635 48.552 87.2795 50.152C86.0955 51.752 85.5035 53.752 85.5035 56.152C85.5035 58.552 86.1115 60.552 87.3275 62.152C88.5435 63.752 90.2875 64.968 92.5595 65.8C94.8635 66.6 97.6315 67 100.864 67ZM98.7035 74.248V38.152H103.168V74.248H98.7035ZM143.477 73.384C140.917 73.384 138.533 72.952 136.325 72.088C134.149 71.224 132.261 70.024 130.661 68.488C129.061 66.92 127.813 65.096 126.917 63.016C126.021 60.936 125.573 58.664 125.573 56.2C125.573 53.736 126.021 51.464 126.917 49.384C127.813 47.304 129.061 45.496 130.661 43.96C132.261 42.392 134.149 41.176 136.325 40.312C138.501 39.448 140.885 39.016 143.477 39.016C146.037 39.016 148.389 39.448 150.533 40.312C152.709 41.144 154.597 42.344 156.197 43.912C157.829 45.448 159.077 47.256 159.941 49.336C160.837 51.416 161.285 53.704 161.285 56.2C161.285 58.696 160.837 60.984 159.941 63.064C159.077 65.144 157.829 66.968 156.197 68.536C154.597 70.072 152.709 71.272 150.533 72.136C148.389 72.968 146.037 73.384 143.477 73.384ZM143.477 69.112C145.333 69.112 147.045 68.792 148.613 68.152C150.213 67.512 151.589 66.616 152.741 65.464C153.925 64.28 154.837 62.904 155.477 61.336C156.149 59.768 156.485 58.056 156.485 56.2C156.485 54.344 156.149 52.632 155.477 51.064C154.837 49.496 153.925 48.136 152.741 46.984C151.589 45.8 150.213 44.888 148.613 44.248C147.045 43.608 145.333 43.288 143.477 43.288C141.589 43.288 139.845 43.608 138.245 44.248C136.677 44.888 135.301 45.8 134.117 46.984C132.933 48.136 132.005 49.496 131.333 51.064C130.693 52.632 130.373 54.344 130.373 56.2C130.373 58.056 130.693 59.768 131.333 61.336C132.005 62.904 132.933 64.28 134.117 65.464C135.301 66.616 136.677 67.512 138.245 68.152C139.845 68.792 141.589 69.112 143.477 69.112ZM169.045 73V39.4H182.149C185.093 39.4 187.605 39.864 189.685 40.792C191.765 41.72 193.365 43.064 194.485 44.824C195.605 46.584 196.165 48.68 196.165 51.112C196.165 53.544 195.605 55.64 194.485 57.4C193.365 59.128 191.765 60.472 189.685 61.432C187.605 62.36 185.093 62.824 182.149 62.824H171.685L173.845 60.568V73H169.045ZM173.845 61.048L171.685 58.648H182.005C185.077 58.648 187.397 57.992 188.965 56.68C190.565 55.368 191.365 53.512 191.365 51.112C191.365 48.712 190.565 46.856 188.965 45.544C187.397 44.232 185.077 43.576 182.005 43.576H171.685L173.845 41.176V61.048ZM202.841 73V39.4H206.777L221.849 64.792H219.737L234.617 39.4H238.553L238.601 73H233.993L233.945 46.648H235.049L221.801 68.92H219.593L206.249 46.648H207.449V73H202.841ZM249.06 73V39.4H253.812V65.32L273.684 39.4H278.1V73H273.396V47.128L253.476 73H249.06ZM295.44 73V42.328L296.64 43.576H283.968V39.4H311.664V43.576H298.992L300.144 42.328V73H295.44ZM332.234 51.112C336.202 51.112 339.258 52.008 341.402 53.8C343.546 55.56 344.618 58.2 344.618 61.72C344.618 65.432 343.45 68.248 341.114 70.168C338.81 72.056 335.562 73 331.37 73H317.498V39.4H322.25V51.112H332.234ZM331.178 69.208C333.962 69.208 336.09 68.584 337.562 67.336C339.066 66.088 339.818 64.248 339.818 61.816C339.818 59.448 339.082 57.704 337.61 56.584C336.138 55.464 333.994 54.904 331.178 54.904H322.25V69.208H331.178ZM364.607 73V39.4H389.951V43.48H369.359V53.08H379.823C383.823 53.08 386.863 53.912 388.943 55.576C391.023 57.24 392.063 59.656 392.063 62.824C392.063 66.088 390.927 68.6 388.655 70.36C386.415 72.12 383.199 73 379.007 73H364.607ZM369.359 69.208H378.815C381.599 69.208 383.695 68.68 385.103 67.624C386.543 66.568 387.263 65 387.263 62.92C387.263 58.888 384.447 56.872 378.815 56.872H369.359V69.208ZM399.716 73V39.4H404.468V65.32L424.34 39.4H428.756V73H424.052V47.128L404.132 73H399.716ZM437.226 73.384C436.746 73.384 436.266 73.352 435.786 73.288C435.306 73.224 434.778 73.128 434.202 73L434.538 68.728C435.05 68.856 435.562 68.92 436.074 68.92C437.482 68.92 438.602 68.36 439.434 67.24C440.266 66.12 440.874 64.424 441.258 62.152C441.674 59.88 441.946 57.016 442.074 53.56L442.602 39.4H466.266V73H461.562V42.328L462.714 43.576H445.674L446.73 42.28L446.346 53.416C446.25 56.744 446.026 59.656 445.674 62.152C445.322 64.648 444.794 66.728 444.09 68.392C443.386 70.056 442.474 71.304 441.354 72.136C440.266 72.968 438.89 73.384 437.226 73.384ZM481.1 53.896H498.38V57.976H481.1V53.896ZM481.532 68.824H501.116V73H476.732V39.4H500.444V43.576H481.532V68.824ZM515.518 73V42.328L516.718 43.576H504.046V39.4H531.742V43.576H519.07L520.222 42.328V73H515.518Z" fill="white"/>
</svg>
